<?xml version="1.0" standalone="no"?><!DOCTYPE svg PUBLIC "-//W3C//DTD SVG 1.1//EN" "http://www.w3.org/Graphics/SVG/1.1/DTD/svg11.dtd"><svg t="1641628991429" class="icon" viewBox="0 0 1024 1024" version="1.1" xmlns="http://www.w3.org/2000/svg" p-id="2015" xmlns:xlink="http://www.w3.org/1999/xlink" width="10" height="10"><defs><style type="text/css"></style></defs><path d="M652.94874834 511.99888611l325.59735361-325.60181027c24.47503921-24.47392532 28.65894968-59.99426431 9.34276574-79.31044718l-70.99165266-70.99053877c-19.31618286-19.31618286-54.78749653-15.08436095-79.31044718 9.39067826L512.01281355 371.07074964 186.40766052 45.48565318c-24.47392532-24.49843745-59.99426431-28.70797502-79.31044718-9.36616506l-70.99053877 70.99053876c-19.31618286 19.29278464-15.13227239 54.81200974 9.39067826 79.28704896l325.59401086 325.59958249L45.49735283 837.59958249c-24.47503921 24.47503921-28.70797502 59.96975111-9.39067826 79.28704895l70.99053877 71.00279482c19.31618286 19.31729784 54.83652295 15.13227239 79.31044718-9.34276572l325.61295244-325.61852407 325.56504099 325.57061263c24.52295065 24.52295065 59.99426431 28.70797502 79.31044719 9.39067826l70.99165266-71.00279483c19.31618286-19.31729784 15.13227239-54.81200974-9.34276573-79.31156217L652.94874834 511.99888611z" p-id="2016" fill="#d1d2d5"></path></svg>