<?xml version="1.0" standalone="no"?><!DOCTYPE svg PUBLIC "-//W3C//DTD SVG 1.1//EN" "http://www.w3.org/Graphics/SVG/1.1/DTD/svg11.dtd"><svg t="1640227393703" class="icon" viewBox="0 0 1024 1024" version="1.1" xmlns="http://www.w3.org/2000/svg" p-id="1744" xmlns:xlink="http://www.w3.org/1999/xlink" width="256" height="256"><defs><style type="text/css"></style></defs><path d="M469.33333334 512m-460.8 0a460.8 460.8 0 1 0 921.6 0 460.8 460.8 0 1 0-921.6 0Z" fill="#F85B50" p-id="1745"></path><path d="M264.53333334 768a51.2 51.2 0 0 1-36.1984-15.0016 51.2 51.2 0 0 1 0-72.3968l409.6-409.6a51.2 51.2 0 0 1 72.3968 0 51.2 51.2 0 0 1 0 72.3968l-409.6 409.6A51.2 51.2 0 0 1 264.53333334 768z" fill="#FFFFFF" p-id="1746"></path><path d="M674.13333334 768a51.2 51.2 0 0 1-36.1984-15.0016l-409.6-409.6a51.2 51.2 0 0 1 0-72.3968 51.2 51.2 0 0 1 72.3968 0l409.6 409.6A51.2 51.2 0 0 1 674.13333334 768z" fill="#FFFFFF" p-id="1747"></path></svg>