<?xml version="1.0" standalone="no"?><!DOCTYPE svg PUBLIC "-//W3C//DTD SVG 1.1//EN" "http://www.w3.org/Graphics/SVG/1.1/DTD/svg11.dtd"><svg t="1642780519720" class="icon" viewBox="0 0 1024 1024" version="1.1" xmlns="http://www.w3.org/2000/svg" p-id="21772" xmlns:xlink="http://www.w3.org/1999/xlink" width="10" height="10"><defs><style type="text/css"></style></defs><path d="M716.094012 71.400149H201.181019a25.262907 25.262907 0 0 0-25.294708 25.237466V814.531578H635.884919c0 77.06713 66.063901 130.925714 143.442683 130.525018 76.055851-0.381615 138.271801-64.696447 138.271802-140.55513V271.429963h-134.264845c-21.414957 0-67.227826-46.766907-67.227826-68.118261V71.400149z" fill="#EAECF0" p-id="21773"></path><path d="M636.889839 812.267329H109.31995c0 68.843329 50.201441 118.618634 116.061814 129.647305l23.183106 1.933515 528.625689-1.049441c-76.895404 0-142.259677-58.908621-140.30072-130.531379z" fill="#C2C5CE" p-id="21774"></path><path d="M277.669366 138.736099m36.056249 0l62.794733 0q36.056248 0 36.056248 36.056249l0 62.47036q0 36.056248-36.056248 36.056249l-62.794733 0q-36.056248 0-36.056249-36.056249l0-62.47036q0-36.056248 36.056249-36.056249Z" fill="#C2C5CE" p-id="21775"></path><path d="M277.434037 339.560944m16.822857 0l472.248448 0q16.822857 0 16.822857 16.822857l0 0q0 16.822857-16.822857 16.822857l-472.248448 0q-16.822857 0-16.822857-16.822857l0 0q0-16.822857 16.822857-16.822857Z" fill="#DADCE2" p-id="21776"></path><path d="M277.434037 440.860621m16.822857 0l220.764224 0q16.822857 0 16.822857 16.822857l0 0q0 16.822857-16.822857 16.822857l-220.764224 0q-16.822857 0-16.822857-16.822857l0 0q0-16.822857 16.822857-16.822857Z" fill="#DADCE2" p-id="21777"></path><path d="M277.434037 542.166658m16.822857 0l220.764224 0q16.822857 0 16.822857 16.822858l0 0q0 16.822857-16.822857 16.822857l-220.764224 0q-16.822857 0-16.822857-16.822857l0 0q0-16.822857 16.822857-16.822858Z" fill="#DADCE2" p-id="21778"></path><path d="M716.03041 239.247106v26.280546c0 5.647901 2.353292 11.041391 6.506534 14.882982 4.153242 3.84795 9.71846 5.787826 15.36636 5.368049l180.370286-13.381963-202.24318-33.155975z" fill="#DEE1EA" opacity=".6" p-id="21779"></path><path d="M820.586534 171.561342L715.814161 70.764124l0.273491 193.186187c0 4.642981 3.771627 8.414609 8.427329 8.414608h193.758609l-97.693416-100.803577z" fill="#E5E7EA" p-id="21780"></path><path d="M936.546584 872.575205l14.666733-14.577689-117.321143-116.672398-14.666733 14.58405z" fill="#DADCE2" p-id="21781"></path><path d="M712.824845 766.98236c73.015652 0 132.197764-58.864099 132.197764-131.466335 0-72.602236-59.188472-131.466335-132.197764-131.466336-73.009292 0-132.197764 58.864099-132.197764 131.466336 0 72.602236 59.188472 131.466335 132.197764 131.466335m0-306.754782c97.349963 0 176.261565 78.485466 176.261565 175.288447 0 96.802981-78.911602 175.282087-176.261565 175.282087-97.343602 0-176.261565-78.479106-176.261565-175.288447 0-96.802981 78.917963-175.275727 176.261565-175.275727" fill="#BBBFC9" p-id="21782"></path><path d="M806.275975 635.516025c0-51.327205-41.837714-92.93595-93.45113-92.93595-51.613416 0-93.45113 41.608745-93.451131 92.93595s41.837714 92.92959 93.451131 92.92959c51.613416 0 93.45113-41.608745 93.45113-92.92959z" fill="#DADCE2" p-id="21783"></path><path d="M712.824845 687.065839c28.633839 0 51.836025-23.081342 51.836025-51.549814 0-28.474832-23.202186-51.556174-51.836025-51.556174-28.633839 0-51.836025 23.087702-51.836025 51.556174s23.202186 51.549814 51.836025 51.549814" fill="#EAECF0" p-id="21784"></path><path d="M1000.70877 921.797168a20.562683 20.562683 0 0 0 0-29.161739l-88.350211-87.860472a20.798012 20.798012 0 0 0-29.327106 0 20.562683 20.562683 0 0 0 0 29.161739l88.350212 87.860472a20.798012 20.798012 0 0 0 29.320745 0z" fill="#BBBFC9" p-id="21785"></path></svg>