<?xml version="1.0" encoding="utf-8"?>
<svg version="1.1" xmlns="http://www.w3.org/2000/svg" xmlns:xlink="http://www.w3.org/1999/xlink" x="0px" y="0px"
	 viewBox="0 0 393.7 83.6" style="enable-background:new 0 0 393.7 83.6;" xml:space="preserve">
<style>
path{
	fill: #d1d2d5;
}
</style>
<path d="M18.19,18.24h8.91L21.11,77.3H10.3l5.77-56.57c0.05-0.73,0.29-1.34,0.73-1.83C17.19,18.46,17.65,18.24,18.19,18.24z
	 M38.99,33.94c0.19,0.34,0.29,0.73,0.29,1.17L36,67.52c-0.24,2.68-0.83,4.55-1.75,5.62c-0.93,1.02-2.43,1.53-4.53,1.53h-4.38
	l3.5-35.84H27.9c-0.39,0-0.71-0.19-0.95-0.58c-0.24-0.44-0.32-0.92-0.22-1.46l4.53-21.54H16.29l0.44-4.38
	c0.1-0.78,0.34-1.36,0.73-1.75c0.39-0.44,0.85-0.66,1.39-0.66h20.29c0.73,0,1.34,0.37,1.82,1.1c0.49,0.73,0.71,1.61,0.66,2.63
	L36.8,33.43h1.31C38.46,33.43,38.75,33.6,38.99,33.94z M54.61,68.76l41.25,2.04c-0.29,2.09-0.88,3.65-1.75,4.67
	c-0.93,1.07-1.97,1.61-3.14,1.61l-40.73-1.97l-0.22,0.44c-0.39,0.83-0.9,1.34-1.53,1.53c-0.63,0.19-1.34,0.27-2.12,0.22
	c-0.15,0-0.29,0-0.44,0h-7.52l5.33-48.4h-3.72l0.22-2.85c0.15-0.73,0.41-1.34,0.8-1.83c0.44-0.49,0.92-0.73,1.46-0.73h13.29
	l-4.16,41.1c-0.1,0.58-0.05,1.12,0.15,1.61c0.19,0.54,0.44,0.97,0.73,1.31c0.29,0.39,0.63,0.71,1.02,0.95
	C53.91,68.66,54.27,68.76,54.61,68.76z M48.41,19.56c-1.66-0.97-2.85-2.51-3.58-4.6c-0.68-2.09-0.71-4.26-0.07-6.5l10.51,5.48
	l-2.34,8.03L48.41,19.56z M61.84,29.92h-4.38l6.79-12.63h-4.31l0.51-3.36c0.15-0.68,0.46-1.24,0.95-1.68
	c0.49-0.44,1.05-0.66,1.68-0.66h4.23l1.31-2.34c0.34-0.54,0.8-0.8,1.39-0.8h14.23L82.5,11.6h20l-0.51,3.28
	c-0.1,0.73-0.39,1.31-0.88,1.75c-0.49,0.44-1.07,0.66-1.75,0.66H79.29l-2.26,4.16h0.29l-0.8,5.18l-0.15,0.88l-0.88,5.99h8.4
	l1.09-6.86h-6.42l0.8-5.18h20.59l-5.84,38.03c-0.39,2.43-1.44,4.33-3.14,5.69c-1.7,1.41-3.84,2.12-6.42,2.12H72.57l0.29-2.12
	c0.15-0.97,0.55-1.75,1.2-2.34c0.66-0.58,1.42-0.88,2.3-0.88h0.8c0.63,0,1.22-0.2,1.75-0.58c0.54-0.44,0.85-0.97,0.95-1.61
	l1.17-7.74h-8.4L70.31,67.3H56.07L61.84,29.92z M74.62,39.19l-1.1,7.15h8.4l1.1-7.15H74.62z"/>
<path d="M117.83,8.68h14.67l-9.93,57.52c-0.63,3.07-2.13,5.62-4.49,7.67c-2.36,2.04-5.03,3.07-7.99,3.07h-4.09L117.83,8.68z
	 M152.36,8.61l-8.1,58.77c-0.1,0.78,0.12,1.46,0.66,2.04c0.49,0.44,1.02,0.66,1.61,0.66h16.28c1.9,0,3.44,0.7,4.63,2.12
	s1.69,3.09,1.5,5.04h-33.07c-2.19,0-3.94-0.8-5.26-2.41c-1.31-1.56-1.83-3.43-1.53-5.62l8.1-58.69c0.1-0.53,0.35-0.99,0.77-1.35
	c0.41-0.36,0.89-0.55,1.42-0.55H152.36z M160.54,8.68h7.88c1.8,0,3.25,0.62,4.34,1.86c1.1,1.24,1.57,2.81,1.42,4.71l-5.11,50.22
	h-14.45L160.54,8.68z M182.95,8.68h5.91c2.43,0,4.4,0.85,5.91,2.55c1.51,1.7,2.17,3.85,1.97,6.42l-6.13,59.28h-11.46
	c-0.92,0-1.66-0.3-2.19-0.91c-0.54-0.61-0.78-1.38-0.73-2.3L182.95,8.68z"/>
<path d="M232.51,54.82l1.17-8.76h-30l0.51-3.72c0.15-0.92,0.55-1.7,1.2-2.34c0.66-0.63,1.45-0.95,2.37-0.95h26.86l0.8-6.06h-30.88
	l0.44-3.14c0.15-1.12,0.61-2.03,1.39-2.74c0.78-0.7,1.7-1.06,2.77-1.06h77.89c-0.34,2.04-1.2,3.71-2.59,5
	c-1.39,1.29-3.03,1.93-4.93,1.93h-29.86l-0.8,6.06h35.62c-0.29,2.04-1.14,3.72-2.55,5.04c-1.41,1.31-3.07,1.97-4.96,1.97h-28.98
	l-1.17,8.76h36.94l-0.29,1.9c-0.19,1.46-0.82,2.68-1.86,3.65c-1.05,0.97-2.28,1.46-3.69,1.46H245.8l-0.88,6.86
	c-0.1,0.83,0.02,1.48,0.37,1.97c0.39,0.53,1.02,0.8,1.9,0.8h29.05c1.41,0,2.57,0.55,3.47,1.64c0.9,1.09,1.28,2.4,1.13,3.91H237.7
	c-1.07,0-2.07-0.17-2.99-0.51c-0.92-0.39-1.7-0.95-2.34-1.68c-0.68-0.73-1.17-1.61-1.46-2.63c-0.29-1.02-0.37-2.19-0.22-3.5
	l0.95-6.86h-31.46l0.51-3.72c0.15-0.97,0.55-1.76,1.2-2.37c0.66-0.61,1.42-0.91,2.3-0.91H232.51z M220.1,16.13l-1.1,2.34
	c-1.56,2.73-3.55,4.09-5.99,4.09h-11.24l6.28-12.63c0.58-0.97,1.31-1.46,2.19-1.46h13.87l-1.02,1.97h24.75l-0.36,3.21
	c-0.15,0.73-0.47,1.33-0.99,1.79c-0.51,0.46-1.11,0.69-1.79,0.69h-4.09l1.09,6.42h-10.29c-2.34,0-3.87-1.36-4.6-4.09l-0.37-2.34
	H220.1z M264.71,16.13l-1.02,2.12c-1.66,2.87-3.77,4.31-6.35,4.31h-11.02l6.2-12.41c0.63-1.12,1.46-1.68,2.48-1.68h13.65l-0.95,1.97
	h24.67l-0.37,2.55c-0.15,0.93-0.54,1.68-1.17,2.26c-0.63,0.58-1.36,0.88-2.19,0.88h-2.41l1.17,6.42h-10.44
	c-1.95,0-3.21-1.12-3.8-3.36l-0.58-3.07H264.71z"/>
<path d="M318.21,24.45l-6.35,44.31c-0.05,0.34,0.05,0.61,0.29,0.8c0.24,0.24,0.56,0.32,0.95,0.22l2.7-0.15
	c0.73,0,1.29,0.22,1.68,0.66c0.39,0.44,0.56,1,0.51,1.68l-0.66,4.53l-15.62,0.8c-1.8,0.1-3.24-0.39-4.31-1.46
	c-1.12-1.12-1.56-2.53-1.31-4.23l5.62-38.84h-3.72c-0.92,0-1.68-0.32-2.26-0.95c-0.54-0.63-0.75-1.41-0.66-2.34l0.73-5.04H318.21z
	 M315,8.46c1.46,0,2.68,0.46,3.65,1.39c0.97,0.92,1.46,2.09,1.46,3.5v7.59h-12.92c-0.68,0-1.22-0.19-1.61-0.58
	c-0.44-0.44-0.68-1-0.73-1.68V8.46H315z M327.27,36.27h15.33l-4.02,29.35c-0.15,1.02,0.07,1.87,0.66,2.55
	c0.58,0.68,1.41,1.02,2.48,1.02h29.78c2.29,0,4.14,0.8,5.55,2.41c0.68,0.73,1.16,1.48,1.42,2.26c0.27,0.78,0.38,1.73,0.33,2.85
	l-0.15,0.37h-49.13c-2.19,0-4.01-0.75-5.47-2.26c-1.36-1.56-1.87-3.43-1.53-5.62L327.27,36.27z M330.77,8.83h56.5l-3.87,26.65
	c-0.29,2.19-1.34,4.09-3.14,5.69c-1.85,1.56-3.92,2.34-6.21,2.34h-30.37l1.02-7.23h19.56c1.02,0,1.92-0.34,2.7-1.02
	c0.83-0.68,1.31-1.51,1.46-2.48l2.19-16.5h-35.99c-1.31,0-2.38-0.46-3.21-1.39c-0.83-0.92-1.17-2.07-1.02-3.43L330.77,8.83z"/>
</svg>
