<?xml version="1.0" standalone="no"?><!DOCTYPE svg PUBLIC "-//W3C//DTD SVG 1.1//EN" "http://www.w3.org/Graphics/SVG/1.1/DTD/svg11.dtd"><svg t="1641627265065" class="icon" viewBox="0 0 1024 1024" version="1.1" xmlns="http://www.w3.org/2000/svg" p-id="1925" xmlns:xlink="http://www.w3.org/1999/xlink" width="10" height="10"><defs><style type="text/css"></style></defs><path d="M132.336027 198.786846m63.668385 0l582.565723 0q63.668385 0 63.668385 63.668385l0 618.007791q0 63.668385-63.668385 63.668385l-582.565723 0q-63.668385 0-63.668385-63.668385l0-618.007791q0-63.668385 63.668385-63.668385Z" fill="#F8F9FB" p-id="1926"></path><path d="M762.370068 962.10004H212.204479a97.6956 97.6956 0 0 1-97.624857-97.624857v-115.31052a17.756405 17.756405 0 0 1 35.371325 0v115.31052a62.182789 62.182789 0 0 0 62.253532 62.253532H762.370068a62.182789 62.182789 0 0 0 62.112047-62.112047v-151.177043a17.756405 17.756405 0 0 1 35.371325 0v150.82333A97.6956 97.6956 0 0 1 762.370068 962.10004z" fill="#5E125C" p-id="1927"></path><path d="M762.370068 890.932934h-523.49561a17.756405 17.756405 0 0 1 0-35.371325h523.49561a62.182789 62.182789 0 0 0 62.112047-62.112047 17.756405 17.756405 0 0 1 35.371325 0 97.6956 97.6956 0 0 1-97.483372 97.483372z" fill="#5E125C" p-id="1928"></path><path d="M764.350862 17.756405H227.98009C184.968559 17.756405 147.616439 57.089319 147.616439 101.161989v780.857371c0-44.072671 37.210634-83.405584 80.222166-83.405584h536.512257a73.855327 73.855327 0 0 0 75.482408-76.33132V101.161989c0-44.072671-32.470876-83.405584-75.482408-83.405584z" fill="#E2696C" p-id="1929"></path><path d="M629.303143 39.049943H744.684405v745.34456H629.303143z" fill="#FFC963" p-id="1930"></path><path d="M766.96834 19.737199c-1.273368 0-1.34411-1.980794-2.617478-1.980794H227.98009C184.968559 17.756405 147.616439 57.089319 147.616439 101.161989V636.68385C360.693301 427.497834 566.554413 217.392163 766.96834 19.737199z" fill="#FFFFFF" opacity=".1" p-id="1931"></path><path d="M150.092432 878.482227H112.245114V500.504249a17.756405 17.756405 0 0 1 35.371325 0v306.315674c17.756405-14.14853 40.889252-25.962553 64.446555-25.962552H762.370068a57.230804 57.230804 0 0 0 59.777539-58.574915V101.161989c0-34.239443-25.538097-65.790664-59.777539-65.790664H212.204479A67.347003 67.347003 0 0 0 147.616439 101.161989v141.980499a17.756405 17.756405 0 1 1-35.371325 0V101.161989A102.859813 102.859813 0 0 1 212.204479 0H762.370068c53.835157 0 95.219607 47.326833 95.219607 101.161989v621.120467a92.743614 92.743614 0 0 1-95.219607 94.087725H212.204479a61.40462 61.40462 0 0 0-62.112047 62.112046z" fill="#5E125C" p-id="1932"></path><path d="M130.00152 429.478628A17.756405 17.756405 0 0 1 112.245114 411.722223V323.01094a17.756405 17.756405 0 0 1 35.371325 0V411.722223a17.756405 17.756405 0 0 1-17.614919 17.756405zM629.303143 802.150908a17.756405 17.756405 0 0 1-17.756405-17.756405V92.319158a17.756405 17.756405 0 1 1 35.371325 0v692.075345a17.685662 17.685662 0 0 1-17.61492 17.756405zM744.613663 740.038861a17.756405 17.756405 0 0 1-17.756405-17.756405V39.049943a17.756405 17.756405 0 0 1 35.371325 0v683.232513a17.756405 17.756405 0 0 1-17.61492 17.756405z" fill="#5E125C" p-id="1933"></path><path d="M690.212565 1006.243453l-71.025621-35.51281-70.954878 35.51281v-133.066924H690.212565v133.066924z" fill="#FFC963" p-id="1934"></path><path d="M690.212565 1023.999859a18.322346 18.322346 0 0 1-7.923177-1.839309L619.186944 990.3971l-63.031701 31.551222a17.756405 17.756405 0 0 1-25.679582-15.917097v-132.854696a17.756405 17.756405 0 0 1 17.756405-17.756405H690.212565a17.756405 17.756405 0 0 1 17.756405 17.756405v133.066924a17.685662 17.685662 0 0 1-17.756405 17.756406z m-70.74265-70.74265a17.61492 17.61492 0 0 1 7.993919 1.839308l45.275296 22.637648v-86.801231h-106.113975v86.589003l45.275296-22.637648a17.544177 17.544177 0 0 1 7.286493-1.839308z" fill="#5E125C" p-id="1935"></path></svg>