<?xml version="1.0" standalone="no"?><!DOCTYPE svg PUBLIC "-//W3C//DTD SVG 1.1//EN" "http://www.w3.org/Graphics/SVG/1.1/DTD/svg11.dtd"><svg t="1641829538822" class="icon" viewBox="0 0 1536 1024" version="1.1" xmlns="http://www.w3.org/2000/svg" p-id="2078" xmlns:xlink="http://www.w3.org/1999/xlink" width="15" height="10"><defs><style type="text/css"></style></defs><path d="M1422.22222256 64.25599999H108.08888856A110.933333 110.933333 0 0 0-2.84444444 174.84799999v723.626667a110.933333 110.933333 0 0 0 110.933333 110.933333h1314.389334c61.269333 0 110.933333-49.749333 110.677333-110.677333V174.84799999A110.933333 110.933333 0 0 0 1422.22222256 64.25599999z" fill="#FF7232" p-id="2079"></path><path d="M661.90222256 787.79733299V499.88266699L514.27555556 684.37333299 366.81955556 499.88266699v288l-148.053333-67.157334V285.78133299h147.626666l147.626667 184.576 147.541333-184.576h147.626667v565.76z" fill="#FFFFFF" p-id="2080"></path><path d="M1018.92063493 77.98639455h419.04761937a83.80952349 83.80952349 0 0 1 83.80952349 83.80952349v754.28571428a83.80952349 83.80952349 0 0 1-83.80952349 83.80952446h-419.04761937V77.98639455z" fill="#e6672d" p-id="2081"></path><path d="M1254.11555556 795.30666699l-170.666667-216.490667h113.749334V368.63999999h113.749333v210.176h113.834667z" fill="#FFFFFF" p-id="2082"></path></svg>