<?xml version="1.0" standalone="no"?><!DOCTYPE svg PUBLIC "-//W3C//DTD SVG 1.1//EN" "http://www.w3.org/Graphics/SVG/1.1/DTD/svg11.dtd"><svg t="1641628867312" class="icon" viewBox="0 0 1028 1024" version="1.1" xmlns="http://www.w3.org/2000/svg" p-id="15192" xmlns:xlink="http://www.w3.org/1999/xlink" width="10.0390625" height="10"><defs><style type="text/css"></style></defs><path d="M819.665069 1.792176H204.310748A179.043771 179.043771 0 0 0 1.800075 204.302849v615.354321a179.043771 179.043771 0 0 0 202.510673 201.641529h615.354321a173.828904 173.828904 0 0 0 201.641529-201.641529V204.302849A179.043771 179.043771 0 0 0 819.665069 1.792176zM139.994054 203.433705a56.494394 56.494394 0 0 1 63.44755-63.44755H818.795925a56.494394 56.494394 0 0 1 64.316694 63.44755V818.788025a62.578405 62.578405 0 0 1-64.316694 64.316695H203.441604a59.970972 59.970972 0 0 1-44.326371-18.252035 65.185839 65.185839 0 0 1-19.121179-46.06466z" p-id="15193" fill="#d1d2d5"></path></svg>