<?xml version="1.0" standalone="no"?><!DOCTYPE svg PUBLIC "-//W3C//DTD SVG 1.1//EN" "http://www.w3.org/Graphics/SVG/1.1/DTD/svg11.dtd"><svg t="1640161759538" class="icon" viewBox="0 0 1029 1024" version="1.1" xmlns="http://www.w3.org/2000/svg" p-id="21886" xmlns:xlink="http://www.w3.org/1999/xlink" width="257.25" height="256"><defs><style type="text/css"></style></defs><path d="M874.410727 953.902611c0 1.445307-0.722653 2.890614-1.445307 3.613268-0.722653 0.722653-2.16796 1.445307-3.613268 1.445307H21.679605c-2.890614 0-5.781228-2.16796-5.781228-5.781228V278.944248c0-2.890614 2.16796-5.781228 5.781228-5.781228h847.672547c2.890614 0 5.781228 2.16796 5.781228 5.781228V953.902611z m0 0" fill="#FAAD06" p-id="21887"></path><path d="M820.934368 228.358504H445.154552V173.436838c0-14.45307-5.781228-28.183486-15.898377-39.023288-10.117149-10.117149-23.847565-15.898377-38.300635-15.898377H69.374735c-14.45307 0-28.183486 5.781228-38.300635 15.898377C21.679605 145.253352 15.898377 158.983769 15.898377 173.436838v218.964009c0-14.45307 5.781228-28.183486 15.898377-39.023289 10.117149-10.117149 23.847565-15.898377 38.300635-15.898377h751.559633c29.628793 0 53.476359 24.570219 53.476358 54.921666V283.280169c-0.722653-30.351447-24.570219-54.921665-54.199012-54.921665z m0 0" fill="#FAAD06" p-id="21888"></path><path d="M140.194778 273.16302h676.403669v592.575865H140.194778z" fill="#FFFFFF" p-id="21889"></path><path d="M72.265349 334.588567H784.801694V910.543402H72.265349z" fill="#FFFFFF" p-id="21890"></path><path d="M874.410727 940.894848c0 30.351447-23.847565 54.921665-53.476359 54.921666H69.374735c-29.628793 0-53.476359-24.570219-53.476358-54.921666l153.925194-450.213126c0-14.45307 5.781228-28.183486 15.898377-39.023289 10.117149-10.117149 23.847565-15.898377 38.300635-15.898377h751.559633c29.628793 0 53.476359 24.570219 53.476358 54.921666l-154.647847 450.213126z m0 0" fill="#FFCB45" p-id="21891"></path></svg>