<?xml version="1.0" standalone="no"?><!DOCTYPE svg PUBLIC "-//W3C//DTD SVG 1.1//EN" "http://www.w3.org/Graphics/SVG/1.1/DTD/svg11.dtd"><svg t="1640162779083" class="icon" viewBox="0 0 1024 1024" version="1.1" xmlns="http://www.w3.org/2000/svg" p-id="1392" xmlns:xlink="http://www.w3.org/1999/xlink" width="256" height="256"><defs><style type="text/css"></style></defs><path d="M825.16854216 965.09520896H172.7825738a17.16966514 17.16966514 0 0 1-17.23098567-17.20032597V293.57732637a17.16966514 17.16966514 0 0 1 17.23098567-17.23098568h650.48504206a17.16966514 17.16966514 0 0 1 17.20032484 17.23098568v652.38596949c1.93158713 9.56595655-5.73344199 19.1319131-15.29939854 19.1319131z" fill="#FFC5B9" p-id="1393"></path><path d="M630.01689771 79.29376882v-40.1647525a13.09186958 13.09186958 0 0 0-13.36781027-13.39847111h-235.34705778a13.09186958 13.09186958 0 0 0-13.36781142 13.39847111v40.1647525c0 7.66502912-5.76410169 13.39847111-13.39847111 13.39847111H113.45524736a13.09186958 13.09186958 0 0 0-13.36781027 13.39847111V217.04967509c0 7.66502912 5.73344199 13.39847111 13.36781027 13.39847112h769.1090341c7.66502912 0 13.39847111-5.76410169 13.39847111-13.39847112V107.99163847a13.09186958 13.09186958 0 0 0-13.39847111-13.39847111h-239.14891264c-7.66502912-1.90092743-13.39847111-7.66502912-13.39847111-15.29939854z" fill="#F02611" p-id="1394"></path></svg>