<?xml version="1.0" encoding="UTF-8"?>
<svg id="_图层_1" data-name="图层 1" xmlns="http://www.w3.org/2000/svg" viewBox="0 0 500 500">
  <defs>
    <style>
      .cls-1 {
        fill: #1f456f;
      }

      .cls-2 {
        fill: #0b8fbf;
      }

      .cls-3 {
        fill: #0f91c0;
      }

      .cls-4 {
        fill: #0e91c0;
      }

      .cls-5 {
        fill: #54c7e8;
      }

      .cls-6 {
        fill: #98a9bc;
      }

      .cls-7 {
        fill: #1092c0;
      }

      .cls-8 {
        fill: #0b90bf;
      }

      .cls-9 {
        fill: #1393c1;
      }

      .cls-10 {
        fill: #53c6e8;
      }

      .cls-11 {
        fill: #254972;
      }
    </style>
  </defs>
  <path class="cls-1" d="M305.87,134.02c9.36,14.28,18.09,27.62,26.83,40.95,25,38.14,49.98,76.31,75.08,114.39,2.13,3.24,2.11,4.41-1.82,5.97-59.46,23.65-118.84,47.49-178.25,71.27-1.38,.55-2.79,1.03-5.37,1.97,27.91-78.37,55.51-155.88,83.52-234.55Z"/>
  <path class="cls-1" d="M99.81,48.67c6.29,2.48,12.6,4.94,18.88,7.45,58.66,23.42,117.29,46.88,176,70.18,3.78,1.5,4.46,2.78,3.02,6.69-16.7,45.21-33.18,90.5-49.73,135.77-.4,1.09-.84,2.17-1.62,4.16C197.11,198.09,148.2,123.78,99.3,49.47c.17-.27,.34-.53,.51-.8Z"/>
  <path class="cls-2" d="M450.25,103.27c-11.92,61.77-23.65,122.54-35.38,183.36-2-.29-2.31-1.98-3.03-3.17-18.63-30.33-37.21-60.69-55.85-91.02-1.38-2.25-2.36-3.76,.38-6.18,30.33-26.78,60.5-53.75,90.72-80.65,.71-.63,1.53-1.14,3.16-2.34Z"/>
  <path class="cls-1" d="M29.5,450.29c68.44-48.3,136.51-96.34,205.81-145.24-1.25,3.77-2.08,6.29-2.92,8.79-6.16,18.44-12.34,36.87-18.46,55.31-.82,2.46-1.95,4.19-4.58,5.31-58.5,25.06-116.96,50.24-175.44,75.35-1.11,.48-2.22,1.59-4.41,.47Z"/>
  <path class="cls-2" d="M222.72,257.68c-56.06-42.95-112.03-85.83-169.12-129.58,9.39,.42,17.55,.72,25.69,1.15,15.8,.84,31.59,1.83,47.4,2.54,2.98,.13,4.76,1.17,6.51,3.53,29.21,39.5,58.51,78.92,87.76,118.39,.81,1.09,2.34,2,1.76,3.96Z"/>
  <path class="cls-10" d="M215.95,307.03c-6.96,4.4-13.9,8.83-20.88,13.2-31.76,19.89-63.55,39.71-95.24,59.71-3.07,1.94-5.4,2.19-8.59,.37-5.89-3.37-12.05-6.26-18.94-9.78,48.28-21.83,95.64-43.25,143-64.67l.65,1.18Z"/>
  <path class="cls-1" d="M179.92,249.17c-24.12-.78-48.24-1.57-72.31-2.35-1.05-1.38,.15-2.27,.68-3.14,5.47-9.12,11.01-18.2,16.52-27.3,.93-1.54,1.4-3.3,4.01-1.64,18.36,11.7,37.42,22.22,56.2,33.22,.39,.23,.64,.69,.96,1.04-2.02,.06-4.03,.12-6.05,.17Z"/>
  <path class="cls-1" d="M455.12,105.78c15.28,22.15,29.95,43.41,44.7,64.79-2.04,.73-3.18-.53-4.45-1.15-14.43-7.13-28.8-14.4-43.29-21.43-2.83-1.38-3.8-2.79-3.19-6.02,2.19-11.69,4.06-23.44,6.22-36.18Z"/>
  <path class="cls-1" d="M40.21,136.81c15.73,12.88,30.7,25.14,46.44,38.03-4.9,1.27-9.12,1.02-13.26,1.33-9.11,.67-18.23,1.25-27.33,2.04-2.74,.24-3.84-.43-3.96-3.36-.49-12.28-1.2-24.55-1.89-38.04Z"/>
  <path class="cls-8" d="M62.14,292.7c8.15-8.9,15.84-17.16,23.34-25.58,1.88-2.11,2.85-1.83,4.41,.24,5.58,7.43,11.28,14.76,16.97,22.1,1.48,1.9,1.98,3.24-1.25,3.24-14.22,0-28.43,0-43.47,0Z"/>
  <path class="cls-5" d="M.94,137.22c8.73-2.07,15.99-3.68,23.18-5.56,2.57-.68,2.74,.49,2.87,2.42,.43,6.43,.95,12.86,1.53,20.52-9.26-5.84-17.78-11.2-27.58-17.38Z"/>
  <path class="cls-5" d="M78.81,229.56c-8,1.8-16,3.62-24.01,5.38-1.99,.44-2.65-.43-2.4-2.46,.65-5.25,1.21-10.52,1.68-15.79,.18-2.1,.78-2.68,2.73-1.52,7.37,4.4,14.78,8.74,22.17,13.1-.05,.43-.11,.86-.16,1.28Z"/>
  <path class="cls-11" d="M18.62,229.54v33.03c-4.44-6.09-8.05-11.09-11.72-16.05-.81-1.09-.19-1.86,.38-2.63,3.42-4.63,6.55-9.49,11.34-14.35Z"/>
  <path class="cls-4" d="M23.87,217.01c-6.36-1.4-11.42-3.38-16.56-5.11-3.57-1.2-3.75-3.06-2.22-5.92,1.09-2.04,2.06-4.13,3.26-6.55,6.78,4.16,10.07,11.17,15.52,17.58Z"/>
  <path class="cls-7" d="M39.9,208.54c-.63-5.03-1.15-9.15-1.65-13.27-.1-.82-.23-1.99,.76-2.08,3.98-.34,8.03-.65,11.93,.29,1.97,.48,.43,1.91-.13,2.68-3.03,4.15-6.25,8.15-10.9,12.37Z"/>
  <path class="cls-3" d="M42.96,258.23c2.7,4.71,4.76,9.02,6.36,13.56,.32,.91,1.09,1.88,.37,2.76-.73,.9-1.84,.42-2.8,.19-.16-.04-.3-.15-.46-.19-11.53-3.15-11.85-4.45-3.47-16.32Z"/>
  <path class="cls-9" d="M96.35,201.25c-3.63,1.8-7.19,3.77-10.91,5.36-3.29,1.41-2.44-1.84-2.79-3.13-1.44-5.34-1.06-5.67,4.21-4.74,3.08,.54,6.17,1.03,9.25,1.54l.24,.97Z"/>
  <path class="cls-6" d="M179.92,249.17c2.02-.06,4.03-.12,6.05-.17-1.96,2.06-4.02,.72-6.05,.17Z"/>
</svg>