<?xml version="1.0" encoding="utf-8"?>
<!-- Generator: Adobe Illustrator 27.0.0, SVG Export Plug-In . SVG Version: 6.00 Build 0)  -->
<svg version="1.1" id="图层_1" xmlns="http://www.w3.org/2000/svg" xmlns:xlink="http://www.w3.org/1999/xlink" x="0px" y="0px"
	 viewBox="0 0 393.7 91.9" style="enable-background:new 0 0 393.7 91.9;" xml:space="preserve">
<style type="text/css">
	.st0{fill:#D1D2D5;}
</style>
<path class="st0" d="M1,10.3l0.5-2.1C1.9,5.9,3,4.1,4.7,2.7c1.7-1.4,3.7-2.1,5.9-2.1h44.5l-0.5,2.8c-0.4,2-1.3,3.7-2.8,5
	c-1.5,1.3-3.3,1.9-5.3,1.9H34.7l-6.4,45.4c-0.5,3-1.8,5.5-4,7.4c-2.2,1.9-4.8,2.9-7.8,2.9h-3.7l7.8-55.8H1z"/>
<path class="st0" d="M81.8,14.1L81.8,14.1c0.4,0,1.2,0.1,2.2,0.4c1.1,0.3,2.5,0.8,4.3,1.7c-0.4,0.8-0.9,1.7-1.5,3
	c-0.6,1.2-1.2,2.5-1.8,3.7c-0.6,1.3-1.3,2.8-2.1,4.6c-0.6-0.3-1-0.4-1.4-0.6c-0.4-0.1-0.8-0.2-1.2-0.3c-0.6-0.2-1.3-0.2-2.3-0.2
	c-1,0-1.8,0.2-2.5,0.4c-0.8,0.3-1.6,0.8-2.4,1.4c-0.9,0.7-1.8,1.5-2.8,2.5c-1,1.1-2.1,2.4-3.3,3.9l-3.2,22.7
	c-0.4,2.6-1.6,4.7-3.5,6.3c-1.9,1.6-4.1,2.5-6.7,2.5h-4.2l6.2-44.6c0.3-1.8,1.1-3.2,2.4-4.4s2.8-1.7,4.6-1.7h5l-1.1,7.4
	c1.5-1.7,2.8-3.2,4-4.3c1.3-1.1,2.4-2,3.5-2.7c1.1-0.7,2.1-1.1,3.1-1.4c1-0.3,2-0.4,3-0.4C80.8,14,81.3,14,81.8,14.1z"/>
<path class="st0" d="M137.3,14.8l-33.7,67.9c-3.4,5.8-8,8.7-13.9,8.7h-4.6c0.1-0.2,0.8-1.6,2.2-4.2c1.4-2.6,3.1-5.6,4.9-9
	c1.9-3.4,4.3-7.8,7.2-13.1l-9.5-48.9c-0.1-0.5-0.2-0.9-0.2-1.3h6.2c2.1,0,3.9,0.6,5.5,1.9c1.6,1.3,2.6,2.9,3,5l5,23.7h0.2l11.8-25.4
	c2.3-4.2,5.5-6.2,9.7-6.2h6.5c0,0.1,0,0.1,0,0.2C137.5,14.3,137.4,14.5,137.3,14.8z"/>
<path class="st0" d="M157,32.5l-4,26.6c-0.3,2-1.2,3.7-2.7,5c-1.5,1.3-3.3,1.9-5.3,1.9h-6.2l6.1-42.9c0.5-2.6,1.6-4.7,3.5-6.4
	c1.9-1.7,4.1-2.5,6.7-2.5h2.2l-1,8.1c3-2.8,5.9-4.9,8.6-6.2c2.7-1.4,5.5-2.1,8.3-2.1c1.9,0,3.6,0.2,5.1,0.6c1.5,0.4,2.8,1,3.9,1.7
	c1.1,0.8,2,1.6,2.7,2.7c0.8,1.1,1.3,2.2,1.7,3.5c1.6-1.5,3.1-2.7,4.6-3.8c1.5-1.1,2.9-2,4.3-2.7c1.4-0.7,2.7-1.2,4.1-1.5
	c1.4-0.4,2.7-0.5,4.1-0.5c3.1,0,5.6,0.5,7.6,1.6c2,1.1,3.5,2.5,4.5,4.3c1.1,1.8,1.7,3.9,1.9,6.3c0.3,2.4,0.2,4.9-0.2,7.6l-4.7,32.4
	h-13.1l4.4-30.2c0.2-1.6,0.3-3,0.2-4.3c-0.1-1.3-0.4-2.4-0.9-3.3c-0.5-0.9-1.1-1.6-2-2.1c-0.9-0.5-1.9-0.8-3.2-0.8
	c-1.6,0-3.2,0.6-5,1.8c-1.8,1.2-3.8,3-5.9,5.3l-4.9,33.5h-13.1l4.4-30.2c0.3-1.6,0.3-3,0.2-4.3c-0.1-1.3-0.4-2.4-0.8-3.3
	s-1.1-1.6-2-2.1c-0.9-0.5-1.9-0.8-3.2-0.8c-1.6,0-3.3,0.6-5.1,1.8C161,28.4,159.1,30.2,157,32.5z"/>
<path class="st0" d="M257,55.6c0.5-0.1,1.1-0.2,1.9-0.5c1.6-0.4,3-0.2,4.4,0.5c1.3,0.7,2.3,1.7,3,3.2l1.3,2.9
	c-0.4,0.2-0.9,0.5-1.5,0.8c-0.1,0-0.1,0-0.2,0c-0.7,0.3-1.5,0.6-2.7,1c-1.1,0.4-2.1,0.7-3,1c-1.6,0.4-3.4,0.8-5.5,1.1
	c-2,0.3-4.2,0.5-6.4,0.5c-4.1,0-7.6-0.5-10.6-1.6c-2.9-1-5.3-2.6-7.1-4.6c-1.8-2.1-2.9-4.8-3.5-8c-0.6-3.2-0.5-6.9,0.1-11.2
	c0.6-4.1,1.6-7.7,3.2-11c1.5-3.3,3.4-6.1,5.8-8.4c2.3-2.3,5-4,8.1-5.2c3.1-1.2,6.5-1.7,10.1-1.7c3.8,0,7,0.6,9.6,1.7
	c2.6,1.1,4.6,2.7,6.1,4.7c1.5,2,2.4,4.4,2.9,7.1c0.4,2.7,0.4,5.7-0.1,9l-0.2,2.1c-0.3,1.6-0.8,2.7-1.6,3.5c-0.8,0.8-1.8,1.1-3,1.1
	h-28c-0.3,2-0.3,3.8-0.1,5.3c0.3,1.6,0.8,3,1.6,4.1c0.9,1.1,2.1,2,3.6,2.5c1.5,0.6,3.4,0.9,5.6,0.9C253.2,56.2,255.3,56,257,55.6z
	 M242.8,30.4c-0.6,1.4-1.1,2.9-1.4,4.6h19.4c0.6-3.6,0.3-6.5-1-8.6c-1.3-2.1-3.5-3.1-6.8-3.1c-1.6,0-3.1,0.3-4.4,0.9
	c-1.3,0.7-2.4,1.5-3.3,2.5C244.2,27.8,243.4,29,242.8,30.4z"/>
<path class="st0" d="M298.2,32.5l-3.9,27.9c-0.3,1.7-1.1,3-2.3,4.1c-1.2,1.1-2.7,1.6-4.3,1.6h-7.4l6.3-45.3c0.3-2,1.2-3.6,2.6-4.8
	c1.4-1.2,3.1-1.9,5.1-1.9h4.5l-1.1,8.1c2.9-2.8,5.9-4.9,8.7-6.3c2.8-1.4,5.7-2.1,8.6-2.1c3.2,0,5.8,0.5,7.8,1.5
	c2,1.1,3.6,2.5,4.6,4.3c1.1,1.8,1.8,3.9,2.1,6.3c0.3,2.4,0.2,5.3-0.3,8.7l-3.6,31.5h-13.1l3.3-29.3c0.3-2.2,0.4-4,0.2-5.3
	c-0.2-1.3-0.5-2.4-1-3.3c-0.5-1-1.2-1.7-2.1-2.2c-0.9-0.5-2-0.8-3.3-0.8c-1.7,0-3.4,0.6-5.3,1.8C302.4,28.3,300.3,30.1,298.2,32.5z"
	/>
<path class="st0" d="M338.6,10.3l0.5-2.1c0.5-2.2,1.5-4.1,3.2-5.5c1.7-1.4,3.7-2.1,5.9-2.1h44.5l-0.5,2.8c-0.4,2-1.3,3.7-2.8,5
	c-1.5,1.3-3.3,1.9-5.3,1.9h-11.9l-6.4,45.4c-0.5,3-1.8,5.5-4,7.4c-2.2,1.9-4.8,2.9-7.8,2.9h-3.7l7.8-55.8H338.6z"/>
</svg>
