<?xml version="1.0" standalone="no"?><!DOCTYPE svg PUBLIC "-//W3C//DTD SVG 1.1//EN" "http://www.w3.org/Graphics/SVG/1.1/DTD/svg11.dtd"><svg t="1640167667550" class="icon" viewBox="0 0 1084 1024" version="1.1" xmlns="http://www.w3.org/2000/svg" p-id="1614" xmlns:xlink="http://www.w3.org/1999/xlink" width="271" height="256"><defs><style type="text/css"></style></defs><path d="M688.83074533 1002.315294H145.11686233A123.783529 123.783529 0 0 1 21.33333333 878.531765V123.783529A123.783529 123.783529 0 0 1 145.11686233 0h543.713883a123.783529 123.783529 0 0 1 123.783529 123.783529v754.748236a123.783529 123.783529 0 0 1-123.783529 123.783529" fill="#F9D11F" p-id="1615"></path><path d="M739.54886233 833.505882L1039.91215733 533.082353a149.775059 149.775059 0 0 0-211.817412-211.757177L527.76156833 621.718588v211.787294h211.787294z" fill="#4C86C6" p-id="1616"></path><path d="M169.03027433 833.445647h358.701177v-94.930823H169.03027433zM169.03027433 232.116706h495.887059V137.155765H169.03027433zM306.18603933 390.354824h232.116706V295.393882H306.18603933z" fill="#FFFFFF" p-id="1617"></path><path d="M527.73145133 621.688471v211.787294h211.787294l73.095529-73.065412V336.835765z" fill="#1565B2" p-id="1618"></path></svg>