<?xml version="1.0" standalone="no"?><!DOCTYPE svg PUBLIC "-//W3C//DTD SVG 1.1//EN" "http://www.w3.org/Graphics/SVG/1.1/DTD/svg11.dtd"><svg t="1640163135103" class="icon" viewBox="0 0 1025 1024" version="1.1" xmlns="http://www.w3.org/2000/svg" p-id="25168" xmlns:xlink="http://www.w3.org/1999/xlink" width="256.25" height="256"><defs><style type="text/css"></style></defs><path d="M1017.6 460.8l-185.6-233.6c-20.8-25.6-57.6-25.6-78.4 0l-184 233.6c-14.4 17.6-1.6 44.8 20.8 44.8h72c-1.6 136-1.6 308.8-240 448-6.4 4.8-3.2 12.8 4.8 12.8 456-70.4 492.8-377.6 494.4-459.2h75.2c22.4-3.2 35.2-28.8 20.8-46.4z" fill="#93A9B1" p-id="25169"></path><path d="M433.6 518.4h-72c1.6-136 1.6-308.8 240-448 6.4-4.8 3.2-12.8-4.8-12.8-456 70.4-492.8 377.6-494.4 459.2h-75.2c-22.4 0-35.2 27.2-20.8 44.8l185.6 233.6c20.8 25.6 57.6 25.6 78.4 0l185.6-233.6c12.8-16 0-43.2-22.4-43.2z" fill="#41CCBA" p-id="25170"></path></svg>